/* XPM */
static char * DateiOpen_xpm[] = {
"22 18 155 2",
"  	c None",
". 	c #E9D777",
"+ 	c #FFF4C9",
"@ 	c #FFF9E3",
"# 	c #E9D778",
"$ 	c #FCE6A3",
"% 	c #FCE398",
"& 	c #FFF5CF",
"* 	c #FAE196",
"= 	c #757575",
"- 	c #D6C55D",
"; 	c #D6C55E",
"> 	c #D7C65F",
", 	c #ECE0AC",
"' 	c #FCEFBD",
") 	c #F5DA8E",
"! 	c #DAD499",
"~ 	c #FEF6C5",
"{ 	c #FEF6B7",
"] 	c #FEF6B1",
"^ 	c #FEF6B2",
"/ 	c #FCF1AC",
"( 	c #F8EDA6",
"_ 	c #F6EAA0",
": 	c #F3E59B",
"< 	c #F0E295",
"[ 	c #ECDD94",
"} 	c #DED5B0",
"| 	c #B4A155",
"1 	c #E7DDAD",
"2 	c #F8E7AF",
"3 	c #EFD488",
"4 	c #DBD59C",
"5 	c #F1EDC2",
"6 	c #FEF5BB",
"7 	c #FEF5AB",
"8 	c #FEF4A4",
"9 	c #FEF4A5",
"0 	c #FEF4A6",
"a 	c #FBF0A0",
"b 	c #F7EB9A",
"c 	c #F5E795",
"d 	c #F1E390",
"e 	c #EEE08D",
"f 	c #EFE39C",
"g 	c #B5A255",
"h 	c #DBCF8E",
"i 	c #F4E4AC",
"j 	c #E1C57B",
"k 	c #DAD398",
"l 	c #F8EB9B",
"m 	c #F5E898",
"n 	c #F2E594",
"o 	c #EFE190",
"p 	c #EDDE8C",
"q 	c #EDDF93",
"r 	c #BEAC5C",
"s 	c #CAB964",
"t 	c #EEDDA5",
"u 	c #D4B66B",
"v 	c #FBF0A1",
"w 	c #F7EC9C",
"x 	c #F4E898",
"y 	c #F2E495",
"z 	c #EFE293",
"A 	c #EFE192",
"B 	c #ECDE8E",
"C 	c #E8DA87",
"D 	c #D7C875",
"E 	c #B19C4C",
"F 	c #E1CA90",
"G 	c #CDAE60",
"H 	c #FEF4A7",
"I 	c #FEF4A8",
"J 	c #FBEFA3",
"K 	c #F7ED9E",
"L 	c #F4E89A",
"M 	c #F2E597",
"N 	c #EFE397",
"O 	c #EFE296",
"P 	c #EEE095",
"Q 	c #EDDE93",
"R 	c #E9D989",
"S 	c #E9D98E",
"T 	c #B29D4B",
"U 	c #D6BF80",
"V 	c #C9AA63",
"W 	c #E3DB95",
"X 	c #FEF4A9",
"Y 	c #FAF1A4",
"Z 	c #F7ED9F",
"` 	c #F6E89C",
" .	c #F2E697",
"..	c #F1E296",
"+.	c #EFE396",
"@.	c #EEE197",
"#.	c #EEE098",
"$.	c #ECE097",
"%.	c #E9DA8D",
"&.	c #E8D98E",
"*.	c #C0AB54",
"=.	c #BDA057",
"-.	c #C1A35A",
";.	c #E4DC98",
">.	c #FBF098",
",.	c #FAF1A6",
"'.	c #F9EDA3",
").	c #F5EBA0",
"!.	c #F3E79C",
"~.	c #F2E499",
"{.	c #EFE297",
"].	c #EDDF96",
"^.	c #ECE198",
"/.	c #ECDE98",
"(.	c #E7D788",
"_.	c #E2D38B",
":.	c #AF9044",
"<.	c #B59956",
"[.	c #F8EB8E",
"}.	c #F9EDA1",
"|.	c #F5E99E",
"1.	c #F3E799",
"2.	c #EFE092",
"3.	c #EEE192",
"4.	c #EBDE8F",
"5.	c #E9DC8D",
"6.	c #EADA8F",
"7.	c #E4D488",
"8.	c #E1D07C",
"9.	c #E2D179",
"0.	c #A28C50",
"a.	c #AC9054",
"b.	c #E9D752",
"c.	c #EED661",
"d.	c #E6D15C",
"e.	c #E3CA56",
"f.	c #E0C656",
"g.	c #D9C150",
"h.	c #D8BE4E",
"i.	c #D5BA49",
"j.	c #D5BA48",
"k.	c #D4B847",
"l.	c #D3B745",
"m.	c #D1B441",
"n.	c #CFB03C",
"o.	c #CCAB35",
"p.	c #C8A72F",
"q.	c #989898",
"r.	c #909090",
"s.	c #898989",
"t.	c #828282",
"u.	c #7D7D7D",
"v.	c #7A7A7A",
"w.	c #787878",
"x.	c #767676",
"                                            ",
"          . . . . . .                       ",
"        . + + + + + + .                     ",
"        . @ @ @ @ @ @ @ . . # . . . $       ",
"        . + + + + + + + + + + + + + %       ",
"        . + + + + + + + + + & & + + * =     ",
". . . . - - - - - - - - - ; > , ' ' ) =     ",
"! ~ { ] ] ] ] ^ / ( _ : < [ } | 1 2 3 =     ",
"4 5 6 7 8 8 8 9 0 a b c d e f g h i j =     ",
"  k 0 8 8 8 9 0 a l m n o p q r s t u =     ",
"  4 8 8 8 9 0 v w x y z A B C D E F G =     ",
"    8 0 H I J K L M N O P Q R S T U V =     ",
"    W I X Y Z `  ...+.@.#.$.%.&.*.=.-.=     ",
"    ;.>.,.'.).!.~.{.P ].^./.%.(._.:.<.=     ",
"      [.}.|.1.2.3.4.5.%.6.7.8.9.8.0.a.=     ",
"      b.c.d.e.f.g.h.i.j.k.l.m.n.o.p.a.=     ",
"        q.r.s.t.u.v.w.x.x.x.x.x.x.x.x.=     ",
"                                            "};
